<svg width="16" height="16" viewBox="0 0 16 16" fill="none" xmlns="http://www.w3.org/2000/svg">
<path d="M7.37127 0.0247501C8.98646 -0.102584 10.6022 0.263507 12.0048 1.07458C13.4074 1.88565 14.5306 3.10348 15.2259 4.5669C15.9212 6.03033 16.1558 7.67038 15.8985 9.27003C15.6413 10.8697 14.9045 12.3535 13.7855 13.5252C12.6665 14.6969 11.2181 15.5013 9.63197 15.8318C8.04584 16.1623 6.39674 16.0034 4.90288 15.3762C3.40902 14.7489 2.14083 13.6829 1.2661 12.3191C0.391377 10.9553 -0.0486421 9.35808 0.00426858 7.73875C0.0101033 7.53984 0.0947167 7.35139 0.239495 7.21486C0.384273 7.07834 0.577356 7.00492 0.776268 7.01075C0.975181 7.01658 1.16363 7.1012 1.30015 7.24598C1.43668 7.39075 1.5101 7.58384 1.50427 7.78275C1.45359 9.31561 1.94657 10.817 2.89603 12.0215C3.84549 13.2259 5.19028 14.0559 6.69259 14.3645C8.19491 14.6732 9.75797 14.4407 11.1054 13.7081C12.4528 12.9756 13.4978 11.7901 14.0556 10.3615C14.6134 8.93281 14.648 7.35292 14.1534 5.90118C13.6587 4.44944 12.6667 3.21937 11.3527 2.42846C10.0386 1.63756 8.48725 1.33678 6.97286 1.57931C5.45846 1.82184 4.0786 2.59205 3.07727 3.75375L2.87327 4.00275H4.75027L4.85227 4.00975C5.03254 4.03364 5.19799 4.12221 5.31783 4.25898C5.43767 4.39575 5.50374 4.5714 5.50374 4.75325C5.50374 4.9351 5.43767 5.11075 5.31783 5.24752C5.19799 5.38429 5.03254 5.47286 4.85227 5.49675L4.75027 5.50275H1.25227L1.15027 5.49675C0.987971 5.47443 0.837444 5.39959 0.721692 5.28366C0.605941 5.16773 0.531332 5.01708 0.509268 4.85475L0.502268 4.75275V0.75275L0.509268 0.65175C0.531332 0.489418 0.605941 0.338774 0.721692 0.222842C0.837444 0.10691 0.987971 0.0320667 1.15027 0.00974999L1.25227 0.00374995L1.35427 0.00974999C1.51657 0.0320667 1.66709 0.10691 1.78284 0.222842C1.8986 0.338774 1.9732 0.489418 1.99527 0.65175L2.00227 0.75275L2.00127 2.70575C3.37398 1.14707 5.3005 0.185242 7.37127 0.0247501ZM7.74927 4.00275L7.85127 4.00975C8.01357 4.03207 8.16409 4.10691 8.27985 4.22284C8.3956 4.33877 8.47021 4.48942 8.49227 4.65175L8.49927 4.75275V7.99975L10.2493 8.00075L10.3513 8.00775C10.5308 8.03245 10.6953 8.1213 10.8144 8.25789C10.9334 8.39447 10.999 8.56955 10.999 8.75075C10.999 8.93195 10.9334 9.10703 10.8144 9.24361C10.6953 9.3802 10.5308 9.46905 10.3513 9.49375L10.2493 9.50075H7.74927L7.64727 9.49375C7.48512 9.47149 7.3347 9.39679 7.21897 9.28105C7.10323 9.16532 7.02853 9.0149 7.00627 8.85275L6.99927 8.74975V4.75275L7.00627 4.65175C7.02833 4.48942 7.10294 4.33877 7.21869 4.22284C7.33444 4.10691 7.48497 4.03207 7.64727 4.00975L7.74927 4.00375V4.00275Z" fill="white"/>
</svg>
