<svg width="16" height="16" viewBox="0 0 16 16" fill="none" xmlns="http://www.w3.org/2000/svg">
<path d="M14.8799 10.2106L13.8209 9.33887C14.0086 8.45616 14.0086 7.54384 13.8209 6.66113L14.8799 5.78937C15.002 5.68929 15.0845 5.54901 15.1127 5.39364C15.1408 5.23826 15.1127 5.07795 15.0334 4.9414L13.9463 3.05864C13.8678 2.92164 13.743 2.81712 13.5943 2.76379C13.4456 2.71047 13.2829 2.71183 13.1351 2.76764L11.8497 3.2492C11.1801 2.64423 10.3902 2.18766 9.53174 1.90947L9.30621 0.557102C9.28068 0.401247 9.20047 0.259579 9.07997 0.157492C8.95947 0.0554051 8.80654 -0.000427226 8.64861 2.46178e-06H6.47454C6.31662 -0.000421757 6.1637 0.0554083 6.0432 0.157487C5.9227 0.259567 5.84249 0.401223 5.81694 0.557069L5.59154 1.90947C4.73308 2.18766 3.94313 2.64422 3.27354 3.2492L1.98804 2.76757C1.84031 2.7118 1.67754 2.71046 1.52891 2.76379C1.38028 2.81712 1.25549 2.92163 1.17691 3.0586L0.0898784 4.9415C0.0105989 5.07806 -0.0174767 5.23838 0.0106802 5.39374C0.038837 5.54911 0.121387 5.68939 0.243545 5.78943L1.30244 6.66113C1.11471 7.54384 1.11471 8.45616 1.30244 9.33887L0.243445 10.2106C0.121306 10.3107 0.038779 10.451 0.0106411 10.6064C-0.0174969 10.7617 0.0105921 10.922 0.0898784 11.0586L1.17694 12.9414C1.25553 13.0784 1.38034 13.1829 1.52899 13.2362C1.67765 13.2895 1.84043 13.2882 1.98818 13.2324L3.27358 12.7508C3.94317 13.3558 4.73311 13.8123 5.59158 14.0905L5.81698 15.4429C5.84251 15.5987 5.92272 15.7404 6.04321 15.8425C6.16371 15.9446 6.31662 16.0004 6.47454 16H8.64861C8.80654 16.0004 8.95946 15.9446 9.07996 15.8425C9.20046 15.7404 9.28067 15.5988 9.30621 15.4429L9.53164 14.0905C10.3901 13.8123 11.18 13.3558 11.8496 12.7508L13.1351 13.2324C13.2828 13.2882 13.4456 13.2895 13.5942 13.2362C13.7429 13.1829 13.8677 13.0784 13.9462 12.9414L15.0332 11.0585C15.1125 10.922 15.1406 10.7617 15.1125 10.6064C15.0844 10.451 15.002 10.3107 14.8799 10.2106ZM13.192 12.1146L11.5884 11.5138L11.3455 11.7583C10.6774 12.4317 9.84175 12.9147 8.92471 13.1574L8.59138 13.2453L8.30988 14.9333H6.81354L6.53214 13.2453L6.19881 13.1574C5.28177 12.9147 4.44609 12.4317 3.77798 11.7583L3.53514 11.5138L1.93124 12.1146L1.18321 10.8187L2.50418 9.73127L2.41418 9.39883C2.16667 8.4827 2.16667 7.5173 2.41418 6.60117L2.50418 6.26877L1.18321 5.1813L1.93141 3.88537L3.53504 4.48617L3.77788 4.2417C4.44599 3.56829 5.28167 3.08531 6.19871 2.8426L6.53204 2.75474L6.81341 1.06667H8.30988L8.59128 2.75474L8.92461 2.8426C9.84165 3.08531 10.6773 3.56829 11.3454 4.2417L11.5883 4.48617L13.1919 3.88537L13.9401 5.18127L12.6192 6.26877L12.7092 6.60117C12.9567 7.5173 12.9567 8.4827 12.7092 9.39883L12.6192 9.73127L13.9401 10.8187L13.192 12.1146Z" fill="white"/>
</svg>
